# xmcd
#
# Track frame offsets:
#	150
#	17831
#	33113
#	49519
#	66006
#	83528
#	105712
#	124738
#	138911
#	158842
#	184818
#
# Disc length: 2511 seconds
#
# Revision: 0
# Processed by: cddbd v1.5.2PL0 Copyright (c) Steve Scherf et al.
# Submitted via: dBpowerAMP V4.0
#
DISCID=8209cd0b
DTITLE=Matt Rawls and Counterfeit - June 2009 www.mattrawls.com
DYEAR=2009
DGENRE=
TTITLE0=Feel Good Song
TTITLE1=One Day at a Time
TTITLE2=Pull the Reigns
TTITLE3=Champagne Taste
TTITLE4=Run From a Heartache
TTITLE5=Ladies in Waiting
TTITLE6=Small Town, TX
TTITLE7=My Fantasy
TTITLE8=Road to the Top
TTITLE9=Desperate Man
TTITLE10=Nam Etarepsed
EXTD=Keith Shahan Bass Player for Matt Rawls and Counterfeit. First official release
EXTT0=
EXTT1=
EXTT2=
EXTT3=
EXTT4=
EXTT5=
EXTT6=
EXTT7=
EXTT8=
EXTT9=
EXTT10=
PLAYORDER=
